<?xml version="1.0" encoding="UTF-8" standalone="no" ?>
<!DOCTYPE svg PUBLIC "-//W3C//DTD SVG 1.1//EN" "http://www.w3.org/Graphics/SVG/1.1/DTD/svg11.dtd">
<svg width="513mm" xmlns="http://www.w3.org/2000/svg" height="281mm" version="1.1" viewBox="0 0 1941 1063" xmlns:xlink="http://www.w3.org/1999/xlink">
   <rect x="662" y="806" fill="#ffffff" width="320" height="120" stroke="#0000ff" stroke-width="1"/>
   <text x="822" y="861" fill="#000000" font-size="8" font-family="'Arial Unicode MS','Arial'" text-anchor="middle">C-01: ET Member, ET SquashReservation, ET MachineReservation, ET GroupClass</text>
   <text x="822" y="869" fill="#000000" font-size="8" font-family="'Arial Unicode MS','Arial'" text-anchor="middle">Reserveringen en inschrijvingen mogen niet van start gaan tussen de begintijd en </text>
   <text x="822" y="877" fill="#000000" font-size="8" font-family="'Arial Unicode MS','Arial'" text-anchor="middle">eindtijd van een andere reserveringen en inschrijvingen.</text>
   <rect x="508" y="628" fill="#ffffff" width="196" height="54" stroke="#0000ff" stroke-width="1"/>
   <text x="606" y="650" fill="#000000" font-size="8" font-family="'Arial Unicode MS','Arial'" text-anchor="middle">C-05: ET Machine, ET MachineReservation</text>
   <text x="606" y="658" fill="#000000" font-size="8" font-family="'Arial Unicode MS','Arial'" text-anchor="middle">Machines waarvan de status 'buiten gebruik' is mogen </text>
   <text x="606" y="666" fill="#000000" font-size="8" font-family="'Arial Unicode MS','Arial'" text-anchor="middle">niet gereserveerd worden.</text>
   <rect x="1191" y="369" fill="#ffffff" width="259" height="52" stroke="#0000ff" stroke-width="1"/>
   <text x="1320" y="390" fill="#000000" font-size="8" font-family="'Arial Unicode MS','Arial'" text-anchor="middle">C-06 ET Employee, ET GroupClassType, ET GroupClass</text>
   <text x="1320" y="398" fill="#000000" font-size="8" font-family="'Arial Unicode MS','Arial'" text-anchor="middle">Een Employee mag alleen GroupClasses geven van types die de </text>
   <text x="1320" y="406" fill="#000000" font-size="8" font-family="'Arial Unicode MS','Arial'" text-anchor="middle">employee zelf ook kent</text>
   <rect x="1163" y="624" fill="#ffffff" width="181" height="80" stroke="#0000ff" stroke-width="1"/>
   <text x="1253" y="651" fill="#000000" font-size="8" font-family="'Arial Unicode MS','Arial'" text-anchor="middle">C-07: ET Subscription, ET SubscriptionType</text>
   <text x="1253" y="659" fill="#000000" font-size="8" font-family="'Arial Unicode MS','Arial'" text-anchor="middle">De status van een subscription mag niet naar </text>
   <text x="1253" y="667" fill="#000000" font-size="8" font-family="'Arial Unicode MS','Arial'" text-anchor="middle">'inactief' gezet mogen worden voordat minimaal </text>
   <text x="1253" y="675" fill="#000000" font-size="8" font-family="'Arial Unicode MS','Arial'" text-anchor="middle">de minimum_length van het SubscriptionType is </text>
   <text x="1253" y="683" fill="#000000" font-size="8" font-family="'Arial Unicode MS','Arial'" text-anchor="middle">verlopen</text>
   <rect x="1067" y="834" fill="#ffffff" width="225" height="63" stroke="#0000ff" stroke-width="1"/>
   <text x="1179" y="856" fill="#000000" font-size="8" font-family="'Arial Unicode MS','Arial'" text-anchor="middle">SDR-03:</text>
   <text x="1179" y="864" fill="#000000" font-size="8" font-family="'Arial Unicode MS','Arial'" text-anchor="middle">x IN Minor IF (x, birthdate is less than 18 years ago)  IN </text>
   <text x="1179" y="872" fill="#000000" font-size="8" font-family="'Arial Unicode MS','Arial'" text-anchor="middle">Member(member_id, birthdate)</text>
   <text x="1179" y="880" fill="#000000" font-size="8" font-family="'Arial Unicode MS','Arial'" text-anchor="middle"> </text>
   <rect x="501" y="420" fill="#ffffff" width="151" height="72" stroke="#0000ff" stroke-width="1"/>
   <text x="576" y="451" fill="#000000" font-size="8" font-family="'Arial Unicode MS','Arial'" text-anchor="middle">SDR-08:</text>
   <text x="576" y="459" fill="#000000" font-size="8" font-family="'Arial Unicode MS','Arial'" text-anchor="middle">x IN Reservation IF (x, 'Reservable room') </text>
   <text x="576" y="467" fill="#000000" font-size="8" font-family="'Arial Unicode MS','Arial'" text-anchor="middle">IN Room(room_id, functionality)</text>
   <rect x="1628" y="562" fill="#ffffff" width="124" height="79" stroke="#0000ff" stroke-width="1"/>
   <text x="1690" y="596" fill="#000000" font-size="8" font-family="'Arial Unicode MS','Arial'" text-anchor="middle">C-11: ET SubscriptionType</text>
   <text x="1690" y="604" fill="#000000" font-size="8" font-family="'Arial Unicode MS','Arial'" text-anchor="middle">De min_length van een </text>
   <text x="1690" y="612" fill="#000000" font-size="8" font-family="'Arial Unicode MS','Arial'" text-anchor="middle">SubscriptionTypemag nooit 0 zijn</text>
   <rect x="1341" y="105" fill="#ffffff" width="208" height="81" stroke="#0000ff" stroke-width="1"/>
   <text x="1445" y="140" fill="#000000" font-size="8" font-family="'Arial Unicode MS','Arial'" text-anchor="middle">BR-12 ET Role, ET Employee, ET GroupClass</text>
   <text x="1445" y="148" fill="#000000" font-size="8" font-family="'Arial Unicode MS','Arial'" text-anchor="middle">Een Employee mag alleen groepslessen geven als hij de</text>
   <text x="1445" y="156" fill="#000000" font-size="8" font-family="'Arial Unicode MS','Arial'" text-anchor="middle"> rol 'Instuctor' heeft</text>
   <polyline fill="none" points="1028,866 1028,791" stroke="#800000" stroke-width="1"/>
   <polygon fill="#800000" points="1028,791 1031,805 1025,805" stroke="#800000" stroke-width="1" stroke-linejoin="miter"/>
   <text x="1028" y="831" fill="#000000" font-size="8" font-family="'Arial Unicode MS','Arial'" text-anchor="middle">IS_A_MINOR</text>
   <polyline fill="none" points="1075,976 1075,976 1028,976 1028,879" stroke="#800000" stroke-width="1"/>
   <polyline fill="none" points="1342,742 1143,742" stroke="#800000" stroke-width="1"/>
   <polygon fill="#ffffff" points="1329,749 1316,742 1329,736" stroke="#800000" stroke-width="1" stroke-linejoin="miter"/>
   <polyline fill="none" points="1342,746 1329,746" stroke="#800000" stroke-width="1"/>
   <polyline fill="none" points="1342,739 1329,739" stroke="#800000" stroke-width="1"/>
   <polyline fill="none" points="1316,737 1316,748" stroke="#800000" stroke-width="1"/>
   <polyline fill="none" points="1157,748 1157,737" stroke="#800000" stroke-width="1"/>
   <text x="1242" y="738" fill="#000000" font-size="8" font-family="'Arial Unicode MS','Arial'" text-anchor="middle">MEMBER_in_SUBSCRIPTION</text>
   <polyline fill="none" points="1484,722 1484,648" stroke="#800000" stroke-width="1"/>
   <polygon fill="#ffffff" points="1477,708 1484,695 1491,708" stroke="#800000" stroke-width="1" stroke-linejoin="miter"/>
   <polyline fill="none" points="1481,722 1481,708" stroke="#800000" stroke-width="1"/>
   <polyline fill="none" points="1487,722 1487,708" stroke="#800000" stroke-width="1"/>
   <ellipse cx="1483" cy="691" rx="3" ry="3" fill="#ffffff" stroke="#800000" stroke-width="1"/>
   <polyline fill="none" points="1478,661 1489,661" stroke="#800000" stroke-width="1"/>
   <text x="1481" y="680" fill="#000000" font-size="8" font-family="'Arial Unicode MS','Arial'" text-anchor="middle">SUBSCRIPTION_TYPE_in_SUBSCRIPTION</text>
   <polyline fill="none" points="106,723 106,655 235,655" stroke="#800000" stroke-width="1"/>
   <polyline fill="none" points="112,710 101,710" stroke="#800000" stroke-width="1"/>
   <polyline fill="none" points="249,664 222,655 249,646 249,664" stroke="#800000" stroke-width="1"/>
   <ellipse cx="218" cy="654" rx="3" ry="3" fill="#ffffff" stroke="#800000" stroke-width="1"/>
   <text x="106" y="658" fill="#000000" font-size="8" font-family="'Arial Unicode MS','Arial'" text-anchor="middle">MACHINE_MACHINE_TYPE</text>
   <polyline fill="none" points="477,764 374,764 374,655" stroke="#800000" stroke-width="1"/>
   <polygon fill="#ffffff" points="464,771 451,764 464,758" stroke="#800000" stroke-width="1" stroke-linejoin="miter"/>
   <polyline fill="none" points="477,767 464,767" stroke="#800000" stroke-width="1"/>
   <polyline fill="none" points="477,761 464,761" stroke="#800000" stroke-width="1"/>
   <ellipse cx="447" cy="764" rx="3" ry="3" fill="#ffffff" stroke="#800000" stroke-width="1"/>
   <polyline fill="none" points="369,668 380,668" stroke="#800000" stroke-width="1"/>
   <text x="374" y="774" fill="#000000" font-size="8" font-family="'Arial Unicode MS','Arial'" text-anchor="middle">MACHINE_in_MACHINE_RESERVATION</text>
   <polyline fill="none" points="682,764 796,764 796,764 910,764" stroke="#800000" stroke-width="1"/>
   <polygon fill="#ffffff" points="695,758 708,764 695,771" stroke="#800000" stroke-width="1" stroke-linejoin="miter"/>
   <polyline fill="none" points="682,761 695,761" stroke="#800000" stroke-width="1"/>
   <polyline fill="none" points="682,767 695,767" stroke="#800000" stroke-width="1"/>
   <ellipse cx="711" cy="764" rx="3" ry="3" fill="#ffffff" stroke="#800000" stroke-width="1"/>
   <polyline fill="none" points="896,759 896,770" stroke="#800000" stroke-width="1"/>
   <text x="799" y="788" fill="#000000" font-size="8" font-family="'Arial Unicode MS','Arial'" text-anchor="middle">MEMBER_in_MACHINE_RESERVATION</text>
   <polyline fill="none" points="1484,489 1484,563" stroke="#800000" stroke-width="1"/>
   <polyline fill="none" points="1493,476 1484,503 1475,476 1493,476" stroke="#800000" stroke-width="1"/>
   <ellipse cx="1483" cy="506" rx="3" ry="3" fill="#ffffff" stroke="#800000" stroke-width="1"/>
   <polyline fill="none" points="1475,577 1484,550 1493,577 1475,577" stroke="#800000" stroke-width="1"/>
   <polyline fill="none" points="1489,550 1478,550" stroke="#800000" stroke-width="1"/>
   <text x="1483" y="530" fill="#000000" font-size="8" font-family="'Arial Unicode MS','Arial'" text-anchor="middle">GROUP_CLASS_TYPE_SUBSCRIPTION_TYPE</text>
   <polyline fill="none" points="1252,290 1469,290 1469,436" stroke="#800000" stroke-width="1"/>
   <polyline fill="none" points="1238,281 1265,290 1238,299 1238,281" stroke="#800000" stroke-width="1"/>
   <ellipse cx="1268" cy="290" rx="3" ry="3" fill="#ffffff" stroke="#800000" stroke-width="1"/>
   <polyline fill="none" points="1460,449 1469,423 1479,449 1460,449" stroke="#800000" stroke-width="1"/>
   <ellipse cx="1469" cy="419" rx="3" ry="3" fill="#ffffff" stroke="#800000" stroke-width="1"/>
   <text x="1469" y="286" fill="#000000" font-size="8" font-family="'Arial Unicode MS','Arial'" text-anchor="middle">EMPLOYEE_GROUP_CLASS_TYPE</text>
   <polyline fill="none" points="1132,472 1355,472" stroke="#800000" stroke-width="1"/>
   <polygon fill="#ffffff" points="1145,465 1158,472 1145,479" stroke="#800000" stroke-width="1" stroke-linejoin="miter"/>
   <polyline fill="none" points="1132,469 1145,469" stroke="#800000" stroke-width="1"/>
   <polyline fill="none" points="1132,475 1145,475" stroke="#800000" stroke-width="1"/>
   <ellipse cx="1161" cy="471" rx="3" ry="3" fill="#ffffff" stroke="#800000" stroke-width="1"/>
   <polyline fill="none" points="1342,466 1342,477" stroke="#800000" stroke-width="1"/>
   <text x="1246" y="468" fill="#000000" font-size="8" font-family="'Arial Unicode MS','Arial'" text-anchor="middle">GROUP_CLASS_in_GROUP_CLASS_TYPE</text>
   <polyline fill="none" points="1065,447 1065,383 1066,383 1066,319" stroke="#800000" stroke-width="1"/>
   <polyline fill="none" points="1055,460 1065,434 1074,460 1055,460" stroke="#800000" stroke-width="1"/>
   <ellipse cx="1064" cy="430" rx="3" ry="3" fill="#ffffff" stroke="#800000" stroke-width="1"/>
   <polyline fill="none" points="1060,332 1071,332" stroke="#800000" stroke-width="1"/>
   <text x="1083" y="380" fill="#000000" font-size="8" font-family="'Arial Unicode MS','Arial'" text-anchor="middle">GROUP_CLASS_EMPLOYEE</text>
   <polyline fill="none" points="1030,694 1030,500" stroke="#800000" stroke-width="1"/>
   <polyline fill="none" points="1020,707 1030,680 1039,707 1020,707" stroke="#800000" stroke-width="1"/>
   <ellipse cx="1029" cy="676" rx="3" ry="3" fill="#ffffff" stroke="#800000" stroke-width="1"/>
   <polyline fill="none" points="1039,487 1030,514 1020,487 1039,487" stroke="#800000" stroke-width="1"/>
   <ellipse cx="1029" cy="517" rx="3" ry="3" fill="#ffffff" stroke="#800000" stroke-width="1"/>
   <text x="1036" y="593" fill="#000000" font-size="8" font-family="'Arial Unicode MS','Arial'" text-anchor="middle">MEMBER_GROUP_CLASS</text>
   <polyline fill="none" points="958,447 958,262 880,262" stroke="#800000" stroke-width="1"/>
   <polygon fill="#ffffff" points="951,434 957,420 964,434" stroke="#800000" stroke-width="1" stroke-linejoin="miter"/>
   <polyline fill="none" points="955,447 954,434" stroke="#800000" stroke-width="1"/>
   <polyline fill="none" points="961,447 960,434" stroke="#800000" stroke-width="1"/>
   <ellipse cx="956" cy="416" rx="3" ry="3" fill="#ffffff" stroke="#800000" stroke-width="1"/>
   <polyline fill="none" points="893,267 893,256" stroke="#800000" stroke-width="1"/>
   <text x="954" y="321" fill="#000000" font-size="8" font-family="'Arial Unicode MS','Arial'" text-anchor="middle">GROUP_CLASS_ROOM</text>
   <polyline fill="none" points="363,602 363,236" stroke="#800000" stroke-width="1"/>
   <polyline fill="none" points="353,615 363,588 372,615 353,615" stroke="#800000" stroke-width="1"/>
   <ellipse cx="362" cy="584" rx="3" ry="3" fill="#ffffff" stroke="#800000" stroke-width="1"/>
   <polyline fill="none" points="357,250 368,250" stroke="#800000" stroke-width="1"/>
   <text x="380" y="511" fill="#000000" font-size="8" font-family="'Arial Unicode MS','Arial'" text-anchor="middle">MACHINE_ROOM</text>
   <polyline fill="none" points="918,694 918,653 914,653 914,612" stroke="#800000" stroke-width="1"/>
   <polyline fill="none" points="923,680 912,681" stroke="#800000" stroke-width="1"/>
   <polygon fill="#ffffff" points="922,625 915,638 908,625" stroke="#800000" stroke-width="1" stroke-linejoin="miter"/>
   <polyline fill="none" points="917,612 918,625" stroke="#800000" stroke-width="1"/>
   <polyline fill="none" points="911,612 912,625" stroke="#800000" stroke-width="1"/>
   <ellipse cx="915" cy="641" rx="3" ry="3" fill="#ffffff" stroke="#800000" stroke-width="1"/>
   <text x="918" y="655" fill="#000000" font-size="8" font-family="'Arial Unicode MS','Arial'" text-anchor="middle">MEMBER_SQUASH_RESERVATION</text>
   <polyline fill="none" points="509,553 739,553" stroke="#800000" stroke-width="1"/>
   <polyline fill="none" points="523,558 523,547" stroke="#800000" stroke-width="1"/>
   <polygon fill="#ffffff" points="726,559 713,553 726,546" stroke="#800000" stroke-width="1" stroke-linejoin="miter"/>
   <polyline fill="none" points="739,556 726,556" stroke="#800000" stroke-width="1"/>
   <polyline fill="none" points="739,549 726,549" stroke="#800000" stroke-width="1"/>
   <ellipse cx="709" cy="552" rx="3" ry="3" fill="#ffffff" stroke="#800000" stroke-width="1"/>
   <text x="622" y="549" fill="#000000" font-size="8" font-family="'Arial Unicode MS','Arial'" text-anchor="middle">SQUASH_ROOM_SQUASH_RESERVATION</text>
   <polyline fill="none" points="424,520 393,520 393,328" stroke="#800000" stroke-width="1"/>
   <polyline fill="none" points="835,289 835,321 403,321" stroke="#800000" stroke-width="1"/>
   <polyline fill="none" points="392,328 392,370 531,370" stroke="#800000" stroke-width="1"/>
   <polygon fill="#800000" points="531,370 518,373 518,367" stroke="#800000" stroke-width="1" stroke-linejoin="miter"/>
   <text x="392" y="373" fill="#000000" font-size="8" font-family="'Arial Unicode MS','Arial'" text-anchor="middle">IS_A_ROOM</text>
   <polyline fill="none" points="375,236 375,321 382,321" stroke="#800000" stroke-width="1"/>
   <polyline fill="none" points="1131,260 1131,167 907,167" stroke="#800000" stroke-width="1"/>
   <polyline fill="none" points="1136,246 1125,246" stroke="#800000" stroke-width="1"/>
   <polygon fill="#ffffff" points="920,160 934,167 920,173" stroke="#800000" stroke-width="1" stroke-linejoin="miter"/>
   <polyline fill="none" points="907,164 920,164" stroke="#800000" stroke-width="1"/>
   <polyline fill="none" points="907,170 920,170" stroke="#800000" stroke-width="1"/>
   <ellipse cx="937" cy="166" rx="3" ry="3" fill="#ffffff" stroke="#800000" stroke-width="1"/>
   <text x="1053" y="160" fill="#000000" font-size="8" font-family="'Arial Unicode MS','Arial'" text-anchor="middle">FITNESS_ROOM_SCHEDULE_EMPLOYEE</text>
   <polyline fill="none" points="360,183 360,161 703,161" stroke="#800000" stroke-width="1"/>
   <polyline fill="none" points="366,170 355,170" stroke="#800000" stroke-width="1"/>
   <polygon fill="#ffffff" points="690,168 676,161 690,154" stroke="#800000" stroke-width="1" stroke-linejoin="miter"/>
   <polyline fill="none" points="703,164 690,164" stroke="#800000" stroke-width="1"/>
   <polyline fill="none" points="703,158 690,158" stroke="#800000" stroke-width="1"/>
   <polyline fill="none" points="676,155 676,166" stroke="#800000" stroke-width="1"/>
   <text x="446" y="159" fill="#000000" font-size="8" font-family="'Arial Unicode MS','Arial'" text-anchor="middle">FITNESS_ROOM_SCHEDULE_FITNESS_ROOM</text>
   <polyline fill="none" points="1238,55 1238,260" stroke="#800000" stroke-width="1"/>
   <polyline fill="none" points="1247,42 1238,68 1228,42 1247,42" stroke="#800000" stroke-width="1"/>
   <polyline fill="none" points="1232,68 1243,68" stroke="#800000" stroke-width="1"/>
   <polyline fill="none" points="1228,273 1238,246 1247,273 1228,273" stroke="#800000" stroke-width="1"/>
   <ellipse cx="1237" cy="242" rx="3" ry="3" fill="#ffffff" stroke="#800000" stroke-width="1"/>
   <text x="1237" y="161" fill="#000000" font-size="8" font-family="'Arial Unicode MS','Arial'" text-anchor="middle">EMPLOYEE_ROLE</text>
   <defs>
      <linearGradient id="Gradient1" x1="0%" x2="100%" y1="0%" y2="100%" gradientUnits="objectBoundingBox">
         <stop offset="5%" stop-color="#ffffff"/>
         <stop offset="95%" stop-color="#e9ca83"/>
      </linearGradient>
   </defs>
   <rect x="1357" y="563" fill="url(#Gradient1)" width="254" height="85" stroke="#808000" stroke-width="1"/>
   <text x="1484" y="574" fill="#000000" font-size="8" font-family="'Arial Unicode MS','Arial'" text-anchor="middle">SubscriptionType</text>
   <line x1="1357" x2="1611" y1="580" y2="580" stroke="#808000" stroke-width="1"/>
   <text x="1361" y="589" fill="#000000" font-size="8" font-family="'Arial Unicode MS','Arial'" text-decoration="underline">type</text>
   <text x="1361" y="602" fill="#000000" font-size="8" font-family="'Arial Unicode MS','Arial'">notice_period</text>
   <text x="1361" y="615" fill="#000000" font-size="8" font-family="'Arial Unicode MS','Arial'">min_length</text>
   <text x="1361" y="628" fill="#000000" font-size="8" font-family="'Arial Unicode MS','Arial'">min_age</text>
   <text x="1361" y="641" fill="#000000" font-size="8" font-family="'Arial Unicode MS','Arial'">max_age</text>
   <text x="1434" y="589" fill="#000000" font-size="8" font-family="'Arial Unicode MS','Arial'" text-decoration="underline">&lt;pi&gt;</text>
   <text x="1463" y="589" fill="#000000" font-size="8" font-family="'Arial Unicode MS','Arial'" text-decoration="underline">SUBSCRIPTION_TYPE</text>
   <text x="1463" y="602" fill="#000000" font-size="8" font-family="'Arial Unicode MS','Arial'">AMOUNT_OF_WEEKS</text>
   <text x="1463" y="615" fill="#000000" font-size="8" font-family="'Arial Unicode MS','Arial'">AMOUNT_OF_MONTHS</text>
   <text x="1463" y="628" fill="#000000" font-size="8" font-family="'Arial Unicode MS','Arial'">AGE</text>
   <text x="1463" y="641" fill="#000000" font-size="8" font-family="'Arial Unicode MS','Arial'">AGE</text>
   <text x="1587" y="589" fill="#000000" font-size="8" font-family="'Arial Unicode MS','Arial'" text-decoration="underline">&lt;M&gt;</text>
   <text x="1587" y="602" fill="#000000" font-size="8" font-family="'Arial Unicode MS','Arial'">&lt;M&gt;</text>
   <text x="1587" y="615" fill="#000000" font-size="8" font-family="'Arial Unicode MS','Arial'">&lt;M&gt;</text>
   <defs>
      <linearGradient id="Gradient2" x1="0%" x2="100%" y1="0%" y2="100%" gradientUnits="objectBoundingBox">
         <stop offset="5%" stop-color="#ffffff"/>
         <stop offset="95%" stop-color="#e9ca83"/>
      </linearGradient>
   </defs>
   <rect x="910" y="694" fill="url(#Gradient2)" width="233" height="97" stroke="#808000" stroke-width="1"/>
   <text x="1026" y="705" fill="#000000" font-size="8" font-family="'Arial Unicode MS','Arial'" text-anchor="middle">Member</text>
   <line x1="910" x2="1143" y1="711" y2="711" stroke="#808000" stroke-width="1"/>
   <text x="914" y="720" fill="#000000" font-size="8" font-family="'Arial Unicode MS','Arial'" text-decoration="underline">member_id</text>
   <text x="914" y="733" fill="#000000" font-size="8" font-family="'Arial Unicode MS','Arial'">first_name</text>
   <text x="914" y="746" fill="#000000" font-size="8" font-family="'Arial Unicode MS','Arial'">last_name</text>
   <text x="914" y="759" fill="#000000" font-size="8" font-family="'Arial Unicode MS','Arial'">phone_number</text>
   <text x="914" y="772" fill="#000000" font-size="8" font-family="'Arial Unicode MS','Arial'">email</text>
   <text x="914" y="785" fill="#000000" font-size="8" font-family="'Arial Unicode MS','Arial'">birthdate</text>
   <text x="994" y="720" fill="#000000" font-size="8" font-family="'Arial Unicode MS','Arial'" text-decoration="underline">&lt;pi&gt;</text>
   <text x="1023" y="720" fill="#000000" font-size="8" font-family="'Arial Unicode MS','Arial'" text-decoration="underline">MEMBER_ID</text>
   <text x="1023" y="733" fill="#000000" font-size="8" font-family="'Arial Unicode MS','Arial'">FIRST_NAME</text>
   <text x="1023" y="746" fill="#000000" font-size="8" font-family="'Arial Unicode MS','Arial'">LAST_NAME</text>
   <text x="1023" y="759" fill="#000000" font-size="8" font-family="'Arial Unicode MS','Arial'">PHONE_NUMBER</text>
   <text x="1023" y="772" fill="#000000" font-size="8" font-family="'Arial Unicode MS','Arial'">EMAIL</text>
   <text x="1023" y="785" fill="#000000" font-size="8" font-family="'Arial Unicode MS','Arial'">DATE</text>
   <text x="1117" y="720" fill="#000000" font-size="8" font-family="'Arial Unicode MS','Arial'" text-decoration="underline">&lt;M&gt;</text>
   <text x="1117" y="733" fill="#000000" font-size="8" font-family="'Arial Unicode MS','Arial'">&lt;M&gt;</text>
   <text x="1117" y="746" fill="#000000" font-size="8" font-family="'Arial Unicode MS','Arial'">&lt;M&gt;</text>
   <text x="1117" y="772" fill="#000000" font-size="8" font-family="'Arial Unicode MS','Arial'">&lt;M&gt;</text>
   <text x="1117" y="785" fill="#000000" font-size="8" font-family="'Arial Unicode MS','Arial'">&lt;M&gt;</text>
   <defs>
      <linearGradient id="Gradient3" x1="0%" x2="100%" y1="0%" y2="100%" gradientUnits="objectBoundingBox">
         <stop offset="5%" stop-color="#ffffff"/>
         <stop offset="95%" stop-color="#e9ca83"/>
      </linearGradient>
   </defs>
   <rect x="899" y="976" fill="url(#Gradient3)" width="250" height="85" stroke="#808000" stroke-width="1"/>
   <text x="1024" y="987" fill="#000000" font-size="8" font-family="'Arial Unicode MS','Arial'" text-anchor="middle">Minor</text>
   <line x1="899" x2="1149" y1="993" y2="993" stroke="#808000" stroke-width="1"/>
   <text x="904" y="1002" fill="#000000" font-size="8" font-family="'Arial Unicode MS','Arial'">guardian_first_name</text>
   <text x="904" y="1015" fill="#000000" font-size="8" font-family="'Arial Unicode MS','Arial'">guardian_last_name</text>
   <text x="904" y="1028" fill="#000000" font-size="8" font-family="'Arial Unicode MS','Arial'">guardian_phone_number</text>
   <text x="904" y="1041" fill="#000000" font-size="8" font-family="'Arial Unicode MS','Arial'">guardian_email</text>
   <text x="904" y="1054" fill="#000000" font-size="8" font-family="'Arial Unicode MS','Arial'">guardian_birthdate</text>
   <text x="1032" y="1002" fill="#000000" font-size="8" font-family="'Arial Unicode MS','Arial'">FIRST_NAME</text>
   <text x="1032" y="1015" fill="#000000" font-size="8" font-family="'Arial Unicode MS','Arial'">LAST_NAME</text>
   <text x="1032" y="1028" fill="#000000" font-size="8" font-family="'Arial Unicode MS','Arial'">PHONE_NUMBER</text>
   <text x="1032" y="1041" fill="#000000" font-size="8" font-family="'Arial Unicode MS','Arial'">EMAIL</text>
   <text x="1032" y="1054" fill="#000000" font-size="8" font-family="'Arial Unicode MS','Arial'">DATE</text>
   <text x="1126" y="1002" fill="#000000" font-size="8" font-family="'Arial Unicode MS','Arial'">&lt;M&gt;</text>
   <text x="1126" y="1015" fill="#000000" font-size="8" font-family="'Arial Unicode MS','Arial'">&lt;M&gt;</text>
   <text x="1126" y="1041" fill="#000000" font-size="8" font-family="'Arial Unicode MS','Arial'">&lt;M&gt;</text>
   <text x="1126" y="1054" fill="#000000" font-size="8" font-family="'Arial Unicode MS','Arial'">&lt;M&gt;</text>
   <defs>
      <linearGradient id="Gradient4" x1="0%" x2="100%" y1="0%" y2="100%" gradientUnits="objectBoundingBox">
         <stop offset="5%" stop-color="#ffffff"/>
         <stop offset="95%" stop-color="#e9ca83"/>
      </linearGradient>
   </defs>
   <defs>
      <linearGradient id="Gradient5" x1="0%" x2="100%" y1="0%" y2="100%" gradientUnits="objectBoundingBox">
         <stop offset="5%" stop-color="#ffffff"/>
         <stop offset="95%" stop-color="#e9ca83"/>
      </linearGradient>
   </defs>
   <path d="M1038,879 A10,13 0 0,0 1017,879 L1027,879 Z" fill="url(#Gradient5)" stroke="#800000" stroke-width="1"/>
   <defs>
      <linearGradient id="Gradient6" x1="0%" x2="100%" y1="0%" y2="100%" gradientUnits="objectBoundingBox">
         <stop offset="5%" stop-color="#ffffff"/>
         <stop offset="95%" stop-color="#e9ca83"/>
      </linearGradient>
   </defs>
   <rect x="1342" y="722" fill="url(#Gradient6)" width="293" height="72" stroke="#808000" stroke-width="1"/>
   <text x="1488" y="733" fill="#000000" font-size="8" font-family="'Arial Unicode MS','Arial'" text-anchor="middle">Subscription</text>
   <line x1="1342" x2="1635" y1="739" y2="739" stroke="#808000" stroke-width="1"/>
   <text x="1347" y="748" fill="#000000" font-size="8" font-family="'Arial Unicode MS','Arial'" text-decoration="underline">start_date</text>
   <text x="1347" y="761" fill="#000000" font-size="8" font-family="'Arial Unicode MS','Arial'">end_date</text>
   <text x="1347" y="774" fill="#000000" font-size="8" font-family="'Arial Unicode MS','Arial'">subscription_status</text>
   <text x="1347" y="787" fill="#000000" font-size="8" font-family="'Arial Unicode MS','Arial'">paid_until</text>
   <text x="1442" y="748" fill="#000000" font-size="8" font-family="'Arial Unicode MS','Arial'" text-decoration="underline">&lt;pi&gt;</text>
   <text x="1471" y="748" fill="#000000" font-size="8" font-family="'Arial Unicode MS','Arial'" text-decoration="underline">DATE</text>
   <text x="1471" y="761" fill="#000000" font-size="8" font-family="'Arial Unicode MS','Arial'">DATE</text>
   <text x="1471" y="774" fill="#000000" font-size="8" font-family="'Arial Unicode MS','Arial'">SUBSCRIPTION_STATUS</text>
   <text x="1471" y="787" fill="#000000" font-size="8" font-family="'Arial Unicode MS','Arial'">DATE</text>
   <text x="1604" y="748" fill="#000000" font-size="8" font-family="'Arial Unicode MS','Arial'" text-decoration="underline">&lt;M&gt;</text>
   <text x="1604" y="761" fill="#000000" font-size="8" font-family="'Arial Unicode MS','Arial'">&lt;M&gt;</text>
   <text x="1604" y="774" fill="#000000" font-size="8" font-family="'Arial Unicode MS','Arial'">&lt;M&gt;</text>
   <text x="1604" y="787" fill="#000000" font-size="8" font-family="'Arial Unicode MS','Arial'">&lt;M&gt;</text>
   <defs>
      <linearGradient id="Gradient7" x1="0%" x2="100%" y1="0%" y2="100%" gradientUnits="objectBoundingBox">
         <stop offset="5%" stop-color="#ffffff"/>
         <stop offset="95%" stop-color="#e9ca83"/>
      </linearGradient>
   </defs>
   <rect x="235" y="602" fill="url(#Gradient7)" width="246" height="53" stroke="#808000" stroke-width="1"/>
   <text x="358" y="613" fill="#000000" font-size="8" font-family="'Arial Unicode MS','Arial'" text-anchor="middle">Machine</text>
   <line x1="235" x2="481" y1="619" y2="619" stroke="#808000" stroke-width="1"/>
   <text x="240" y="628" fill="#000000" font-size="8" font-family="'Arial Unicode MS','Arial'" text-decoration="underline">machine_id</text>
   <text x="240" y="641" fill="#000000" font-size="8" font-family="'Arial Unicode MS','Arial'">machine_status</text>
   <text x="321" y="628" fill="#000000" font-size="8" font-family="'Arial Unicode MS','Arial'" text-decoration="underline">&lt;pi&gt;</text>
   <text x="350" y="628" fill="#000000" font-size="8" font-family="'Arial Unicode MS','Arial'" text-decoration="underline">MACHINE_ID</text>
   <text x="350" y="641" fill="#000000" font-size="8" font-family="'Arial Unicode MS','Arial'">MACHINE_STATUS</text>
   <text x="453" y="628" fill="#000000" font-size="8" font-family="'Arial Unicode MS','Arial'" text-decoration="underline">&lt;M&gt;</text>
   <text x="453" y="641" fill="#000000" font-size="8" font-family="'Arial Unicode MS','Arial'">&lt;M&gt;</text>
   <defs>
      <linearGradient id="Gradient8" x1="0%" x2="100%" y1="0%" y2="100%" gradientUnits="objectBoundingBox">
         <stop offset="5%" stop-color="#ffffff"/>
         <stop offset="95%" stop-color="#e9ca83"/>
      </linearGradient>
   </defs>
   <rect x="2" y="723" fill="url(#Gradient8)" width="209" height="53" stroke="#808000" stroke-width="1"/>
   <text x="106" y="734" fill="#000000" font-size="8" font-family="'Arial Unicode MS','Arial'" text-anchor="middle">MachineType</text>
   <line x1="2" x2="211" y1="740" y2="740" stroke="#808000" stroke-width="1"/>
   <text x="7" y="749" fill="#000000" font-size="8" font-family="'Arial Unicode MS','Arial'" text-decoration="underline">type_name</text>
   <text x="68" y="749" fill="#000000" font-size="8" font-family="'Arial Unicode MS','Arial'" text-decoration="underline">&lt;pi&gt;</text>
   <text x="97" y="749" fill="#000000" font-size="8" font-family="'Arial Unicode MS','Arial'" text-decoration="underline">MACHINE_TYPE</text>
   <text x="186" y="749" fill="#000000" font-size="8" font-family="'Arial Unicode MS','Arial'" text-decoration="underline">&lt;M&gt;</text>
   <defs>
      <linearGradient id="Gradient9" x1="0%" x2="100%" y1="0%" y2="100%" gradientUnits="objectBoundingBox">
         <stop offset="5%" stop-color="#ffffff"/>
         <stop offset="95%" stop-color="#e9ca83"/>
      </linearGradient>
   </defs>
   <rect x="477" y="738" fill="url(#Gradient9)" width="205" height="53" stroke="#808000" stroke-width="1"/>
   <text x="579" y="749" fill="#000000" font-size="8" font-family="'Arial Unicode MS','Arial'" text-anchor="middle">MachineReservation</text>
   <line x1="477" x2="682" y1="755" y2="755" stroke="#808000" stroke-width="1"/>
   <text x="482" y="764" fill="#000000" font-size="8" font-family="'Arial Unicode MS','Arial'" text-decoration="underline">start_timestamp</text>
   <text x="482" y="777" fill="#000000" font-size="8" font-family="'Arial Unicode MS','Arial'">end_timestamp</text>
   <text x="564" y="764" fill="#000000" font-size="8" font-family="'Arial Unicode MS','Arial'" text-decoration="underline">&lt;pi&gt;</text>
   <text x="593" y="764" fill="#000000" font-size="8" font-family="'Arial Unicode MS','Arial'" text-decoration="underline">TIMEDATE</text>
   <text x="593" y="777" fill="#000000" font-size="8" font-family="'Arial Unicode MS','Arial'">TIMEDATE</text>
   <text x="655" y="764" fill="#000000" font-size="8" font-family="'Arial Unicode MS','Arial'" text-decoration="underline">&lt;M&gt;</text>
   <text x="655" y="777" fill="#000000" font-size="8" font-family="'Arial Unicode MS','Arial'">&lt;M&gt;</text>
   <defs>
      <linearGradient id="Gradient10" x1="0%" x2="100%" y1="0%" y2="100%" gradientUnits="objectBoundingBox">
         <stop offset="5%" stop-color="#ffffff"/>
         <stop offset="95%" stop-color="#e9ca83"/>
      </linearGradient>
   </defs>
   <rect x="1355" y="436" fill="url(#Gradient10)" width="228" height="53" stroke="#808000" stroke-width="1"/>
   <text x="1469" y="447" fill="#000000" font-size="8" font-family="'Arial Unicode MS','Arial'" text-anchor="middle">GroupClassType</text>
   <line x1="1355" x2="1583" y1="453" y2="453" stroke="#808000" stroke-width="1"/>
   <text x="1360" y="462" fill="#000000" font-size="8" font-family="'Arial Unicode MS','Arial'" text-decoration="underline">class_name</text>
   <text x="1360" y="475" fill="#000000" font-size="8" font-family="'Arial Unicode MS','Arial'">max_participants</text>
   <text x="1448" y="462" fill="#000000" font-size="8" font-family="'Arial Unicode MS','Arial'" text-decoration="underline">&lt;pi&gt;</text>
   <text x="1477" y="462" fill="#000000" font-size="8" font-family="'Arial Unicode MS','Arial'" text-decoration="underline">CLASS_NAME</text>
   <text x="1477" y="475" fill="#000000" font-size="8" font-family="'Arial Unicode MS','Arial'">QUANTITY</text>
   <text x="1555" y="462" fill="#000000" font-size="8" font-family="'Arial Unicode MS','Arial'" text-decoration="underline">&lt;M&gt;</text>
   <text x="1555" y="475" fill="#000000" font-size="8" font-family="'Arial Unicode MS','Arial'">&lt;M&gt;</text>
   <defs>
      <linearGradient id="Gradient11" x1="0%" x2="100%" y1="0%" y2="100%" gradientUnits="objectBoundingBox">
         <stop offset="5%" stop-color="#ffffff"/>
         <stop offset="95%" stop-color="#e9ca83"/>
      </linearGradient>
   </defs>
   <rect x="1042" y="260" fill="url(#Gradient11)" width="210" height="59" stroke="#808000" stroke-width="1"/>
   <text x="1147" y="271" fill="#000000" font-size="8" font-family="'Arial Unicode MS','Arial'" text-anchor="middle">Employee</text>
   <line x1="1042" x2="1252" y1="277" y2="277" stroke="#808000" stroke-width="1"/>
   <text x="1047" y="286" fill="#000000" font-size="8" font-family="'Arial Unicode MS','Arial'" text-decoration="underline">employee_id</text>
   <text x="1047" y="299" fill="#000000" font-size="8" font-family="'Arial Unicode MS','Arial'">first_name</text>
   <text x="1047" y="312" fill="#000000" font-size="8" font-family="'Arial Unicode MS','Arial'">last_name</text>
   <text x="1117" y="286" fill="#000000" font-size="8" font-family="'Arial Unicode MS','Arial'" text-decoration="underline">&lt;pi&gt;</text>
   <text x="1146" y="286" fill="#000000" font-size="8" font-family="'Arial Unicode MS','Arial'" text-decoration="underline">EMPLOYEE_ID</text>
   <text x="1146" y="299" fill="#000000" font-size="8" font-family="'Arial Unicode MS','Arial'">FIRST_NAME</text>
   <text x="1146" y="312" fill="#000000" font-size="8" font-family="'Arial Unicode MS','Arial'">LAST_NAME</text>
   <text x="1228" y="286" fill="#000000" font-size="8" font-family="'Arial Unicode MS','Arial'" text-decoration="underline">&lt;M&gt;</text>
   <text x="1228" y="299" fill="#000000" font-size="8" font-family="'Arial Unicode MS','Arial'">&lt;M&gt;</text>
   <text x="1228" y="312" fill="#000000" font-size="8" font-family="'Arial Unicode MS','Arial'">&lt;M&gt;</text>
   <defs>
      <linearGradient id="Gradient12" x1="0%" x2="100%" y1="0%" y2="100%" gradientUnits="objectBoundingBox">
         <stop offset="5%" stop-color="#ffffff"/>
         <stop offset="95%" stop-color="#e9ca83"/>
      </linearGradient>
   </defs>
   <rect x="928" y="447" fill="url(#Gradient12)" width="204" height="53" stroke="#808000" stroke-width="1"/>
   <text x="1030" y="458" fill="#000000" font-size="8" font-family="'Arial Unicode MS','Arial'" text-anchor="middle">GroupClass</text>
   <line x1="928" x2="1132" y1="464" y2="464" stroke="#808000" stroke-width="1"/>
   <text x="932" y="473" fill="#000000" font-size="8" font-family="'Arial Unicode MS','Arial'" text-decoration="underline">start_timestamp</text>
   <text x="932" y="486" fill="#000000" font-size="8" font-family="'Arial Unicode MS','Arial'">end_timestamp</text>
   <text x="1014" y="473" fill="#000000" font-size="8" font-family="'Arial Unicode MS','Arial'" text-decoration="underline">&lt;pi&gt;</text>
   <text x="1043" y="473" fill="#000000" font-size="8" font-family="'Arial Unicode MS','Arial'" text-decoration="underline">TIMEDATE</text>
   <text x="1043" y="486" fill="#000000" font-size="8" font-family="'Arial Unicode MS','Arial'">TIMEDATE</text>
   <text x="1105" y="473" fill="#000000" font-size="8" font-family="'Arial Unicode MS','Arial'" text-decoration="underline">&lt;M&gt;</text>
   <text x="1105" y="486" fill="#000000" font-size="8" font-family="'Arial Unicode MS','Arial'">&lt;M&gt;</text>
   <defs>
      <linearGradient id="Gradient13" x1="0%" x2="100%" y1="0%" y2="100%" gradientUnits="objectBoundingBox">
         <stop offset="5%" stop-color="#ffffff"/>
         <stop offset="95%" stop-color="#e9ca83"/>
      </linearGradient>
   </defs>
   <rect x="531" y="352" fill="url(#Gradient13)" width="252" height="59" stroke="#808000" stroke-width="1"/>
   <text x="657" y="363" fill="#000000" font-size="8" font-family="'Arial Unicode MS','Arial'" text-anchor="middle">Room</text>
   <line x1="531" x2="783" y1="369" y2="369" stroke="#808000" stroke-width="1"/>
   <text x="536" y="378" fill="#000000" font-size="8" font-family="'Arial Unicode MS','Arial'" text-decoration="underline">room_id</text>
   <text x="536" y="391" fill="#000000" font-size="8" font-family="'Arial Unicode MS','Arial'">functionality</text>
   <text x="536" y="404" fill="#000000" font-size="8" font-family="'Arial Unicode MS','Arial'">max_people</text>
   <text x="603" y="378" fill="#000000" font-size="8" font-family="'Arial Unicode MS','Arial'" text-decoration="underline">&lt;pi&gt;</text>
   <text x="632" y="378" fill="#000000" font-size="8" font-family="'Arial Unicode MS','Arial'" text-decoration="underline">ROOM_ID</text>
   <text x="632" y="391" fill="#000000" font-size="8" font-family="'Arial Unicode MS','Arial'">ROOM_FUNCTIONALITY</text>
   <text x="632" y="404" fill="#000000" font-size="8" font-family="'Arial Unicode MS','Arial'">QUANTITY</text>
   <text x="760" y="378" fill="#000000" font-size="8" font-family="'Arial Unicode MS','Arial'" text-decoration="underline">&lt;M&gt;</text>
   <text x="760" y="391" fill="#000000" font-size="8" font-family="'Arial Unicode MS','Arial'">&lt;M&gt;</text>
   <text x="760" y="404" fill="#000000" font-size="8" font-family="'Arial Unicode MS','Arial'">&lt;M&gt;</text>
   <defs>
      <linearGradient id="Gradient14" x1="0%" x2="100%" y1="0%" y2="100%" gradientUnits="objectBoundingBox">
         <stop offset="5%" stop-color="#ffffff"/>
         <stop offset="95%" stop-color="#e9ca83"/>
      </linearGradient>
   </defs>
   <rect x="424" y="516" fill="url(#Gradient14)" width="85" height="53" stroke="#808000" stroke-width="1"/>
   <text x="466" y="527" fill="#000000" font-size="8" font-family="'Arial Unicode MS','Arial'" text-anchor="middle">ReservableRoom</text>
   <line x1="424" x2="509" y1="533" y2="533" stroke="#808000" stroke-width="1"/>
   <defs>
      <linearGradient id="Gradient15" x1="0%" x2="100%" y1="0%" y2="100%" gradientUnits="objectBoundingBox">
         <stop offset="5%" stop-color="#ffffff"/>
         <stop offset="95%" stop-color="#e9ca83"/>
      </linearGradient>
   </defs>
   <rect x="739" y="552" fill="url(#Gradient15)" width="204" height="60" stroke="#808000" stroke-width="1"/>
   <text x="841" y="563" fill="#000000" font-size="8" font-family="'Arial Unicode MS','Arial'" text-anchor="middle">RoomReservation</text>
   <line x1="739" x2="943" y1="569" y2="569" stroke="#808000" stroke-width="1"/>
   <text x="744" y="578" fill="#000000" font-size="8" font-family="'Arial Unicode MS','Arial'" text-decoration="underline">start_timestamp</text>
   <text x="744" y="591" fill="#000000" font-size="8" font-family="'Arial Unicode MS','Arial'">end_timestamp</text>
   <text x="744" y="604" fill="#000000" font-size="8" font-family="'Arial Unicode MS','Arial'">quantity</text>
   <text x="826" y="578" fill="#000000" font-size="8" font-family="'Arial Unicode MS','Arial'" text-decoration="underline">&lt;pi&gt;</text>
   <text x="855" y="578" fill="#000000" font-size="8" font-family="'Arial Unicode MS','Arial'" text-decoration="underline">TIMEDATE</text>
   <text x="855" y="591" fill="#000000" font-size="8" font-family="'Arial Unicode MS','Arial'">TIMEDATE</text>
   <text x="855" y="604" fill="#000000" font-size="8" font-family="'Arial Unicode MS','Arial'">QUANTITY</text>
   <text x="917" y="578" fill="#000000" font-size="8" font-family="'Arial Unicode MS','Arial'" text-decoration="underline">&lt;M&gt;</text>
   <text x="917" y="591" fill="#000000" font-size="8" font-family="'Arial Unicode MS','Arial'">&lt;M&gt;</text>
   <text x="917" y="604" fill="#000000" font-size="8" font-family="'Arial Unicode MS','Arial'">&lt;M&gt;</text>
   <defs>
      <linearGradient id="Gradient16" x1="0%" x2="100%" y1="0%" y2="100%" gradientUnits="objectBoundingBox">
         <stop offset="5%" stop-color="#ffffff"/>
         <stop offset="95%" stop-color="#e9ca83"/>
      </linearGradient>
   </defs>
   <rect x="332" y="183" fill="url(#Gradient16)" width="70" height="53" stroke="#808000" stroke-width="1"/>
   <text x="367" y="194" fill="#000000" font-size="8" font-family="'Arial Unicode MS','Arial'" text-anchor="middle">FitnessRoom</text>
   <line x1="332" x2="402" y1="200" y2="200" stroke="#808000" stroke-width="1"/>
   <defs>
      <linearGradient id="Gradient17" x1="0%" x2="100%" y1="0%" y2="100%" gradientUnits="objectBoundingBox">
         <stop offset="5%" stop-color="#ffffff"/>
         <stop offset="95%" stop-color="#e9ca83"/>
      </linearGradient>
   </defs>
   <rect x="790" y="235" fill="url(#Gradient17)" width="90" height="54" stroke="#808000" stroke-width="1"/>
   <text x="835" y="246" fill="#000000" font-size="8" font-family="'Arial Unicode MS','Arial'" text-anchor="middle">GroupClassRoom</text>
   <line x1="790" x2="880" y1="252" y2="252" stroke="#808000" stroke-width="1"/>
   <defs>
      <linearGradient id="Gradient18" x1="0%" x2="100%" y1="0%" y2="100%" gradientUnits="objectBoundingBox">
         <stop offset="5%" stop-color="#ffffff"/>
         <stop offset="95%" stop-color="#e9ca83"/>
      </linearGradient>
   </defs>
   <defs>
      <linearGradient id="Gradient19" x1="0%" x2="100%" y1="0%" y2="100%" gradientUnits="objectBoundingBox">
         <stop offset="5%" stop-color="#ffffff"/>
         <stop offset="95%" stop-color="#e9ca83"/>
      </linearGradient>
   </defs>
   <path d="M403,328 A10,13 0 0,0 382,328 L392,328 Z" fill="url(#Gradient19)" stroke="#800000" stroke-width="1"/>
   <line x1="403" x2="382" y1="325" y2="325" stroke="#800000" stroke-width="1"/>
   <line x1="396" x2="389" y1="325" y2="317" stroke="#800000" stroke-width="1"/>
   <line x1="389" x2="396" y1="325" y2="317" stroke="#800000" stroke-width="1"/>
   <defs>
      <linearGradient id="Gradient20" x1="0%" x2="100%" y1="0%" y2="100%" gradientUnits="objectBoundingBox">
         <stop offset="5%" stop-color="#ffffff"/>
         <stop offset="95%" stop-color="#e9ca83"/>
      </linearGradient>
   </defs>
   <rect x="703" y="140" fill="url(#Gradient20)" width="204" height="53" stroke="#808000" stroke-width="1"/>
   <text x="805" y="151" fill="#000000" font-size="8" font-family="'Arial Unicode MS','Arial'" text-anchor="middle">FitnessRoomSchedule</text>
   <line x1="703" x2="907" y1="157" y2="157" stroke="#808000" stroke-width="1"/>
   <text x="708" y="166" fill="#000000" font-size="8" font-family="'Arial Unicode MS','Arial'" text-decoration="underline">start_timestamp</text>
   <text x="708" y="179" fill="#000000" font-size="8" font-family="'Arial Unicode MS','Arial'">end_timestamp</text>
   <text x="790" y="166" fill="#000000" font-size="8" font-family="'Arial Unicode MS','Arial'" text-decoration="underline">&lt;pi&gt;</text>
   <text x="819" y="166" fill="#000000" font-size="8" font-family="'Arial Unicode MS','Arial'" text-decoration="underline">TIMEDATE</text>
   <text x="819" y="179" fill="#000000" font-size="8" font-family="'Arial Unicode MS','Arial'">TIMEDATE</text>
   <text x="881" y="166" fill="#000000" font-size="8" font-family="'Arial Unicode MS','Arial'" text-decoration="underline">&lt;M&gt;</text>
   <text x="881" y="179" fill="#000000" font-size="8" font-family="'Arial Unicode MS','Arial'">&lt;M&gt;</text>
   <rect x="1696" y="116" fill="#ffffff" width="243" height="119" stroke="#0000ff" stroke-width="1"/>
   <text x="1817" y="170" fill="#000000" font-size="8" font-family="'Arial Unicode MS','Arial'" text-anchor="middle">C-02: ET Employee, ET GroupClass, ET FitnessRoomSchedule</text>
   <text x="1817" y="178" fill="#000000" font-size="8" font-family="'Arial Unicode MS','Arial'" text-anchor="middle">Diensten en groepslessen mogen niet van start gaan tussen de </text>
   <text x="1817" y="186" fill="#000000" font-size="8" font-family="'Arial Unicode MS','Arial'" text-anchor="middle">begintijd en eindtijd van een andere diensten en groepslessen.</text>
   <rect x="660" y="483" fill="#ffffff" width="256" height="46" stroke="#0000ff" stroke-width="1"/>
   <text x="788" y="505" fill="#000000" font-size="8" font-family="'Arial Unicode MS','Arial'" text-anchor="middle">C-04: ET RoomReservation</text>
   <text x="788" y="513" fill="#000000" font-size="8" font-family="'Arial Unicode MS','Arial'" text-anchor="middle">De quantity van een RoomReservation mag nooit 0 zijn</text>
   <rect x="203" y="267" fill="#ffffff" width="140" height="73" stroke="#0000ff" stroke-width="1"/>
   <text x="273" y="298" fill="#000000" font-size="8" font-family="'Arial Unicode MS','Arial'" text-anchor="middle">SDR-09:</text>
   <text x="273" y="306" fill="#000000" font-size="8" font-family="'Arial Unicode MS','Arial'" text-anchor="middle">x IN FitnessRoom IF (x, 'Fitness room') </text>
   <text x="273" y="314" fill="#000000" font-size="8" font-family="'Arial Unicode MS','Arial'" text-anchor="middle">IN Room(room_id, functionality)</text>
   <rect x="548" y="173" fill="#ffffff" width="140" height="74" stroke="#0000ff" stroke-width="1"/>
   <text x="618" y="201" fill="#000000" font-size="8" font-family="'Arial Unicode MS','Arial'" text-anchor="middle">SDR-10:</text>
   <text x="618" y="209" fill="#000000" font-size="8" font-family="'Arial Unicode MS','Arial'" text-anchor="middle">x IN GroupClassRoom IF (x, 'Group </text>
   <text x="618" y="217" fill="#000000" font-size="8" font-family="'Arial Unicode MS','Arial'" text-anchor="middle">class room') IN Room(room_id, </text>
   <text x="618" y="225" fill="#000000" font-size="8" font-family="'Arial Unicode MS','Arial'" text-anchor="middle">functionality)</text>
   <defs>
      <linearGradient id="Gradient21" x1="0%" x2="100%" y1="0%" y2="100%" gradientUnits="objectBoundingBox">
         <stop offset="5%" stop-color="#ffffff"/>
         <stop offset="95%" stop-color="#e9ca83"/>
      </linearGradient>
   </defs>
   <rect x="1143" y="2" fill="url(#Gradient21)" width="189" height="53" stroke="#808000" stroke-width="1"/>
   <text x="1237" y="13" fill="#000000" font-size="8" font-family="'Arial Unicode MS','Arial'" text-anchor="middle">Role</text>
   <line x1="1143" x2="1332" y1="19" y2="19" stroke="#808000" stroke-width="1"/>
   <text x="1148" y="28" fill="#000000" font-size="8" font-family="'Arial Unicode MS','Arial'" text-decoration="underline">role_name</text>
   <text x="1207" y="28" fill="#000000" font-size="8" font-family="'Arial Unicode MS','Arial'" text-decoration="underline">&lt;pi&gt;</text>
   <text x="1236" y="28" fill="#000000" font-size="8" font-family="'Arial Unicode MS','Arial'" text-decoration="underline">ROLE_NAME</text>
   <text x="1308" y="28" fill="#000000" font-size="8" font-family="'Arial Unicode MS','Arial'" text-decoration="underline">&lt;M&gt;</text>
</svg>
